<?xml version="1.0" standalone="no"?>
<!DOCTYPE svg PUBLIC "-//W3C//DTD SVG 20010904//EN"
 "http://www.w3.org/TR/2001/REC-SVG-20010904/DTD/svg10.dtd">
<svg version="1.0" xmlns="http://www.w3.org/2000/svg"
 width="317.000000pt" height="321.000000pt" viewBox="0 0 317.000000 321.000000"
 preserveAspectRatio="xMidYMid meet">
<metadata>
Created by potrace 1.13, written by Peter Selinger 2001-2015
</metadata>
<g transform="translate(0.000000,321.000000) scale(0.100000,-0.100000)"
fill="#000000" stroke="none">
<path d="M1355 3125 c-322 -52 -601 -194 -835 -427 -138 -137 -210 -239 -300
-423 -75 -156 -104 -249 -135 -444 -29 -180 -12 -464 35 -611 4 -14 13 -45 21
-70 7 -25 16 -49 21 -54 4 -6 8 -17 8 -25 0 -17 82 -187 126 -261 78 -133 249
-319 389 -423 44 -33 87 -62 95 -65 8 -3 27 -13 41 -23 74 -51 261 -130 379
-161 353 -89 732 -53 1040 101 171 86 290 170 417 298 132 133 204 236 293
418 105 216 150 413 150 660 0 247 -45 444 -150 660 -92 188 -166 293 -305
430 -228 226 -509 367 -835 421 -104 17 -346 16 -455 -1z m-225 -598 c0 4 189
8 420 8 231 0 420 -3 420 -6 0 -4 10 -6 22 -5 l23 1 0 -448 c0 -437 1 -449 20
-463 16 -12 52 -14 183 -12 89 2 162 -1 162 -5 0 -5 5 -5 11 -1 16 9 109 11
109 1 0 -5 5 -5 11 -1 17 10 109 10 109 0 0 -6 5 -5 10 0 12 12 100 -4 100
-18 0 -4 -5 -8 -11 -8 -7 0 -8 -4 -2 -12 5 -7 8 -24 6 -38 -5 -35 -5 -41 0
-72 2 -16 0 -28 -5 -28 -5 0 -6 -6 -2 -12 11 -18 12 -48 2 -48 -5 0 -6 -5 -2
-12 4 -6 8 -38 8 -70 1 -47 -2 -58 -15 -58 -9 0 -19 -3 -23 -7 -9 -10 -196
-10 -196 -1 0 5 -5 8 -11 8 -5 0 -8 -3 -5 -8 6 -10 -96 -9 -111 1 -7 5 -13 5
-13 0 0 -4 -23 -8 -50 -8 -28 -1 -50 3 -50 8 0 5 -8 3 -17 -4 -14 -12 -16 -12
-8 0 6 11 5 12 -6 5 -17 -10 -209 -12 -209 -1 0 4 -5 7 -11 7 -5 0 -8 -3 -6
-8 6 -9 -159 -9 -169 0 -3 4 -14 4 -23 0 -13 -6 -135 -7 -178 0 -9 1 -12 106
-13 447 0 503 3 481 -76 481 -52 0 -75 -20 -72 -64 1 -17 -2 -37 -6 -44 -4 -7
-4 -12 1 -12 9 0 8 -133 -1 -149 -4 -6 -4 -11 1 -11 10 0 9 -141 -1 -158 -4
-7 -4 -12 1 -12 9 0 9 -350 0 -374 -4 -9 -3 -16 1 -16 9 0 8 -103 -2 -118 -4
-7 -2 -12 4 -12 6 0 8 -5 4 -11 -4 -6 -9 -37 -11 -68 -6 -65 -40 -140 -86
-185 -30 -31 -157 -111 -157 -100 0 2 -8 0 -19 -5 -10 -6 -33 -13 -52 -16 -19
-3 -47 -10 -64 -15 -31 -9 -92 -16 -226 -26 -107 -9 -106 -11 -104 178 2 196
3 208 16 208 5 0 7 -5 3 -12 -5 -7 -3 -8 6 -3 8 5 30 10 49 11 89 7 128 22
175 69 20 19 36 43 37 53 0 9 3 26 6 37 3 11 6 294 7 629 2 576 3 609 20 612
10 1 20 5 23 8 3 3 14 1 24 -5 11 -5 19 -6 19 -2z"/>
</g>
</svg>
