<?xml version="1.0" encoding="utf-8"?>
<!-- Generator: Adobe Illustrator 16.0.1, SVG Export Plug-In . SVG Version: 6.00 Build 0)  -->
<!DOCTYPE svg PUBLIC "-//W3C//DTD SVG 1.1//EN" "http://www.w3.org/Graphics/SVG/1.1/DTD/svg11.dtd">
<svg version="1.1" id="Layer_1" xmlns="http://www.w3.org/2000/svg" xmlns:xlink="http://www.w3.org/1999/xlink" x="0px" y="0px"
	 width="16px" height="16px" viewBox="88.15 92.024 16 16" enable-background="new 88.15 92.024 16 16" xml:space="preserve">
<path d="M94.594,92.807c-1.182,0.32-1.938,0.665-2.75,1.264c-1.026,0.763-1.954,1.913-2.34,2.922
	c-0.09,0.247-0.197,0.518-0.238,0.607c-0.377,0.87-0.468,3.037-0.18,4.153c0.402,1.52,0.87,2.349,1.97,3.448
	c2.38,2.381,5.927,2.8,8.898,1.06c0.591-0.354,2.052-1.725,2.282-2.159c0.196-0.354,0.705-1.404,0.771-1.576
	c0.484-1.321,0.501-3.793,0.041-4.926c-0.033-0.09-0.148-0.369-0.246-0.615c-0.797-1.97-2.734-3.579-4.975-4.146
	C97.253,92.7,95.086,92.676,94.594,92.807z M98.271,97.74c0.008,1.215,0.024,2.208,0.041,2.217c0.008,0.008,0.771,0.032,1.699,0.058
	l1.683,0.049v0.944v0.943h-2.709h-2.709l-0.041-2.15c-0.041-2.217-0.065-2.372-0.378-2.307c-0.147,0.024-0.155,0.181-0.197,2.61
	c-0.033,1.814-0.082,2.659-0.156,2.832c-0.197,0.468-0.64,0.837-1.322,1.084c-0.353,0.131-1.831,0.312-2.002,0.246
	c-0.107-0.041-0.132-0.214-0.132-0.944c0-0.583,0.033-0.919,0.099-0.984c0.058-0.058,0.254-0.099,0.443-0.099
	c0.254,0,0.418-0.058,0.599-0.214l0.254-0.213v-3.021c0-1.666,0.024-3.086,0.049-3.152c0.049-0.123,0.312-0.131,2.405-0.114
	l2.347,0.024L98.271,97.74z"/>
</svg>
