<?xml version="1.0" encoding="utf-8"?>
<!-- Generator: Adobe Illustrator 16.0.1, SVG Export Plug-In . SVG Version: 6.00 Build 0)  -->
<!DOCTYPE svg PUBLIC "-//W3C//DTD SVG 1.1//EN" "http://www.w3.org/Graphics/SVG/1.1/DTD/svg11.dtd">
<svg version="1.1" xmlns="http://www.w3.org/2000/svg" xmlns:xlink="http://www.w3.org/1999/xlink" x="0px" y="0px" width="192px"
	 height="192px" viewBox="0 0 192 192" enable-background="new 0 0 192 192" xml:space="preserve">
<g id="Layer_2">
	
		<ellipse transform="matrix(0.9999 0.0127 -0.0127 0.9999 1.2351 -1.2357)" fill="#FFFFFF" stroke="#000000" stroke-width="5" stroke-miterlimit="10" cx="97.68" cy="96.4" rx="93.32" ry="93.6"/>
</g>
<g id="Layer_1">
	<g transform="translate(0.000000,192.000000) scale(0.100000,-0.100000)">
		<path d="M795.543,1805.332c-138.814-37.598-227.506-78.086-322.939-148.457c-120.504-89.648-229.43-224.609-274.742-343.188
			c-10.605-28.921-23.135-60.728-27.953-71.333c-44.346-102.188-54.951-356.68-21.211-487.783
			c47.236-178.34,102.182-275.713,231.361-404.883c279.561-279.561,696.006-328.73,1044.98-124.355
			c69.404,41.445,240.996,202.441,267.988,253.525c23.135,41.455,82.91,164.854,90.615,185.088
			c56.885,155.205,58.799,445.376,4.824,578.408c-3.857,10.605-17.354,43.379-28.916,72.3
			c-93.516,231.362-321.016,420.308-584.189,486.821C1107.881,1817.866,853.385,1820.757,795.543,1805.332z M1227.412,1225.962
			c0.967-142.671,2.891-259.312,4.824-260.278c0.967-0.957,90.615-3.848,199.551-6.748l197.617-5.781V842.295V731.426h-318.115
			H993.164l-4.824,252.578c-4.814,260.278-7.705,278.594-44.34,270.879c-17.35-2.891-18.316-21.206-23.135-306.553
			c-3.857-213.037-9.645-312.344-18.316-332.578c-23.135-54.951-75.195-98.33-155.205-127.256
			c-41.449-15.42-214.971-36.631-235.215-28.916c-12.539,4.814-15.43,25.068-15.43,110.859c0,68.447,3.857,107.969,11.572,115.684
			c6.748,6.748,29.883,11.572,52.057,11.572c29.887,0,49.164,6.748,70.371,25.059l29.883,25.068v354.751
			c0,195.688,2.891,362.466,5.785,370.176c5.787,14.458,36.631,15.425,282.451,13.496l275.703-2.891L1227.412,1225.962z"/>
		<path d="M56.152,1150.771c0-24.102,1.929-33.74,3.857-21.211c1.924,11.572,1.924,30.85,0,43.379
			C58.081,1184.512,56.152,1174.873,56.152,1150.771z"/>
		<path d="M56.152,769.99c0-31.807,1.929-43.379,3.857-26.025c1.924,17.344,1.924,43.379,0,57.832
			C58.081,816.26,56.152,801.797,56.152,769.99z"/>
	</g>
</g>
</svg>
